<svg width="512" height="512" viewBox="0 0 512 512" fill="none" xmlns="http://www.w3.org/2000/svg">
<path d="M496 512H16C7.168 512 0 504.832 0 496V336C0 327.168 7.168 320 16 320H496C504.832 320 512 327.168 512 336V496C512 504.832 504.832 512 496 512ZM32 480H480V352H32V480Z" fill="#7F8F9F"/>
<path d="M432 352C423.168 352 416 344.832 416 336V192H96V336C96 344.832 88.832 352 80 352C71.168 352 64 344.832 64 336V176C64 167.168 71.168 160 80 160H432C440.832 160 448 167.168 448 176V336C448 344.832 440.832 352 432 352Z" fill="#7F8F9F"/>
<path d="M368 192C359.168 192 352 184.832 352 176V96H160V176C160 184.832 152.832 192 144 192C135.168 192 128 184.832 128 176V80C128 71.168 135.168 64 144 64H368C376.832 64 384 71.168 384 80V176C384 184.832 376.832 192 368 192Z" fill="#7F8F9F"/>
<path d="M256 96C229.536 96 208 74.464 208 48C208 21.536 229.536 0 256 0C282.464 0 304 21.536 304 48C304 74.464 282.464 96 256 96ZM256 32C247.168 32 240 39.168 240 48C240 56.832 247.168 64 256 64C264.8 64 272 56.832 272 48C272 39.168 264.8 32 256 32Z" fill="#7F8F9F"/>
<path d="M192 448C147.904 448 112 412.128 112 368C112 359.168 119.168 352 128 352C136.832 352 144 359.168 144 368C144 394.464 165.536 416 192 416C218.464 416 240 394.464 240 368C240 359.168 247.168 352 256 352C264.832 352 272 359.168 272 368C272 412.128 236.096 448 192 448Z" fill="#7F8F9F"/>
<path d="M64.0091 448C40.8091 448 18.8891 437.92 3.84914 420.32C-1.91086 413.6 -1.11086 403.52 5.60914 397.76C12.2651 391.968 22.4091 392.832 28.1691 399.52C37.1291 409.984 50.1851 416 64.0091 416C90.4731 416 112.009 394.464 112.009 368C112.009 359.168 119.177 352 128.009 352C136.841 352 144.009 359.168 144.009 368C144.009 412.128 108.105 448 64.0091 448Z" fill="#7F8F9F"/>
<path d="M320 448C275.872 448 240 412.128 240 368C240 359.168 247.168 352 256 352C264.832 352 272 359.168 272 368C272 394.464 293.536 416 320 416C346.464 416 368 394.464 368 368C368 359.168 375.168 352 384 352C392.832 352 400 359.168 400 368C400 412.128 364.128 448 320 448Z" fill="#7F8F9F"/>
<path d="M448 448C403.872 448 368 412.128 368 368C368 359.168 375.168 352 384 352C392.832 352 400 359.168 400 368C400 394.464 421.536 416 448 416C461.824 416 474.88 409.984 483.84 399.488C489.6 392.8 499.68 392 506.4 397.728C513.12 403.456 513.888 413.568 508.16 420.288C493.088 437.92 471.168 448 448 448Z" fill="#7F8F9F"/>
<path d="M208 256C172.704 256 144 227.296 144 192C144 183.168 151.168 176 160 176C168.832 176 176 183.168 176 192C176 209.632 190.368 224 208 224C225.632 224 240 209.632 240 192C240 183.168 247.168 176 256 176C264.832 176 272 183.168 272 192C272 227.296 243.296 256 208 256Z" fill="#7F8F9F"/>
<path d="M304 256C268.704 256 240 227.296 240 192C240 183.168 247.168 176 256 176C264.832 176 272 183.168 272 192C272 209.632 286.336 224 304 224C321.664 224 336 209.632 336 192C336 183.168 343.168 176 352 176C360.832 176 368 183.168 368 192C368 227.296 339.296 256 304 256Z" fill="#7F8F9F"/>
<path d="M400 256C364.704 256 336 227.296 336 192C336 183.168 343.168 176 352 176C360.832 176 368 183.168 368 192C368 209.632 382.336 224 400 224C407.872 224 415.392 221.088 421.12 215.776C427.68 209.76 437.792 210.176 443.744 216.672C449.76 223.168 449.344 233.28 442.88 239.296C431.2 250.048 415.968 256 400 256Z" fill="#7F8F9F"/>
<path d="M112.001 256C96.0329 256 80.8009 250.048 69.1529 239.264C62.6569 233.28 62.2409 223.136 68.2569 216.672C74.2409 210.144 84.3849 209.76 90.8489 215.776C96.6089 221.088 104.097 224 112.001 224C129.633 224 144.001 209.632 144.001 192C144.001 183.168 151.169 176 160.001 176C168.833 176 176.001 183.168 176.001 192C176.001 227.296 147.297 256 112.001 256Z" fill="#7F8F9F"/>
</svg>
