<svg width="512" height="512" viewBox="0 0 512 512" fill="none" xmlns="http://www.w3.org/2000/svg">
<path d="M422.121 512C407.019 512 392.972 506.078 382.509 495.385C366.926 480.114 362.127 457.191 369.422 437.118L277.047 344.724C270.807 338.481 270.807 328.332 277.047 322.089C283.286 315.847 293.429 315.847 299.669 322.089L400.171 422.615C405.579 428.026 406.411 436.542 402.155 442.881C395.82 452.293 397.068 464.875 405.163 472.782C414.442 482.195 430.057 482.003 438.888 473.039C442.823 469.261 445.191 464.555 446.023 459.368C447.079 452.453 452.486 447.043 459.398 445.986C464.581 445.186 469.285 442.785 472.645 439.263C477.508 434.461 480.004 428.506 480.004 422.135C480.004 415.732 477.508 409.778 473.029 405.392C464.869 397.036 452.295 395.787 442.919 402.126C436.584 406.352 428.073 405.552 422.665 400.141L322.195 299.583C315.955 293.34 315.955 283.192 322.195 276.949C328.434 270.706 338.577 270.706 344.816 276.949L437.16 369.375C457.286 362.044 480.196 366.91 495.65 382.725C506.082 392.938 512.001 407.024 512.001 422.103C512.001 437.182 506.081 451.237 495.394 461.705C489.955 467.468 482.82 472.014 474.884 474.863C471.973 482.835 467.365 490.038 461.318 495.769C451.271 506.078 437.192 512 422.121 512Z" fill="#7F8F9F"/>
<path d="M276.722 360.603C274.61 360.603 272.467 360.187 270.451 359.322C218.232 336.944 164.349 317.991 110.274 302.848L99.0107 299.679C98.4027 299.583 97.7948 299.455 97.1868 299.295C75.1409 293.02 55.0467 281.271 39.1442 265.359C11.6587 237.891 -2.13198 200.209 0.267798 159.263C2.63558 119.02 20.4579 80.3145 50.4711 50.3168C112.865 -12.1118 209.272 -17.1061 265.427 39.0156C281.266 54.8949 293.009 74.9681 299.312 97.0582C299.504 97.7305 299.664 98.4028 299.76 99.0751L302.864 110.12C317.998 164.225 336.941 218.17 359.307 270.418C361.866 276.436 360.522 283.384 355.915 288.026L288.081 355.897C284.977 358.97 280.882 360.603 276.722 360.603ZM104.354 268.049C104.866 268.145 105.378 268.241 105.922 268.401L118.881 272.018C170.876 286.553 222.679 304.577 273.043 325.643L325.646 273.011C304.592 222.588 286.577 170.756 272.051 118.732L268.435 105.798C268.275 105.222 268.147 104.646 268.051 104.101C263.123 87.902 254.388 73.2393 242.773 61.65C199.129 17.95 123.008 23.0403 73.093 72.9512C48.6153 97.4104 34.0887 128.721 32.2008 161.152C30.345 192.814 40.84 221.787 61.7661 242.693C73.445 254.41 88.1317 263.15 104.354 268.049Z" fill="#7F8F9F"/>
</svg>
