<svg width="408" height="512" viewBox="0 0 408 512" fill="none" xmlns="http://www.w3.org/2000/svg">
<path fill-rule="evenodd" clip-rule="evenodd" d="M210.434 90.3523H392.206C404.131 90.3523 411.325 103.554 404.86 113.575L256.678 343.257V481.879H339.501C347.818 481.879 354.56 488.621 354.56 496.938C354.56 505.255 347.818 511.997 339.501 511.997H143.738C135.421 511.997 128.679 505.255 128.679 496.938C128.679 488.621 135.421 481.879 143.738 481.879H226.561V343.257L137.954 205.917C127.75 209.149 117.031 210.822 106.091 210.822C47.8738 210.822 0.679688 163.628 0.679688 105.411C0.679688 47.1941 47.8738 0 106.091 0C159.195 0 203.127 39.2687 210.434 90.3523ZM120.767 179.278L78.3782 113.575C71.9133 103.554 79.107 90.3523 91.032 90.3523H179.878C172.902 55.9847 142.517 30.1174 106.091 30.1174C64.5072 30.1174 30.7971 63.8275 30.7971 105.411C30.7971 146.995 64.5072 180.705 106.091 180.705C111.073 180.705 115.982 180.222 120.767 179.278ZM311.136 203.293H172.102L241.619 311.044L311.136 203.293ZM330.567 173.175L364.57 120.47H118.668L152.672 173.175H330.567Z" fill="#7F8F9F"/>
</svg>
