<svg width="512" height="352" viewBox="0 0 512 352" fill="none" xmlns="http://www.w3.org/2000/svg">
<path d="M80.0005 254.715C78.9445 254.715 77.8884 254.619 76.8324 254.395C32.3202 245.435 0 203.993 0 155.831C0 120.821 17.4721 88.1799 45.6003 70.5791L151.329 2.54411C156.609 -0.848038 163.361 -0.848038 168.641 2.54411L274.562 70.7072C279.778 74.0353 283.906 77.2994 287.49 80.8836C293.73 87.1239 293.73 97.2683 287.426 103.477C281.186 109.717 271.074 109.717 264.802 103.413C262.882 101.493 260.578 99.7325 257.313 97.6204L160.001 35.0256L62.7204 97.5884C43.7123 109.493 32.0002 131.766 32.0002 155.831C32.0002 188.792 53.5043 217.05 83.1685 223.034C91.8405 224.794 97.4406 233.21 95.7125 241.883C94.1445 249.467 87.4885 254.715 80.0005 254.715Z" fill="#7F8F9F"/>
<path d="M432 254.715C424.672 254.715 418.048 249.659 416.384 242.203C414.432 233.594 419.872 225.05 428.512 223.098C440.928 220.282 452.577 213.626 461.345 204.345C473.185 191.705 480.001 174.008 480.001 155.831C480.001 131.766 468.289 109.493 449.441 97.7164L352 35.0256L254.719 97.5884C251.423 99.7325 249.087 101.525 247.167 103.445C240.927 109.685 230.783 109.685 224.543 103.445C218.303 97.2043 218.303 87.0599 224.543 80.8196C228.127 77.2354 232.223 74.0033 237.471 70.6752L343.36 2.54411C348.608 -0.848038 355.424 -0.848038 360.672 2.54411L466.593 70.7072C494.529 88.1479 512.001 120.821 512.001 155.831C512.001 182.392 502.273 207.385 484.673 226.266C471.521 240.219 454.081 250.139 435.52 254.299C434.336 254.587 433.152 254.715 432 254.715Z" fill="#7F8F9F"/>
<path d="M336.021 352H176.02C114.26 352 64.0195 301.758 64.0195 239.995C64.0195 200.665 84.9157 163.864 118.612 143.991L247.797 66.2912C252.885 63.219 259.189 63.219 264.309 66.2912L393.493 143.991C427.126 163.896 448.022 200.665 448.022 239.995C448.022 269.884 436.374 297.982 415.189 319.166C394.005 340.351 365.909 352 336.021 352ZM256.021 98.6446L134.996 171.448C110.9 185.72 96.0197 211.93 96.0197 239.995C96.0197 284.125 131.924 319.999 176.02 319.999H336.021C357.333 319.999 377.429 311.646 392.565 296.541C407.701 281.437 416.022 261.308 416.022 239.995C416.022 211.93 401.141 185.72 377.141 171.512L377.045 171.448L256.021 98.6446Z" fill="#7F8F9F"/>
<path d="M256.016 223.994C247.184 223.994 240.016 216.826 240.016 207.993V175.992C240.016 167.16 247.184 159.991 256.016 159.991C264.848 159.991 272.016 167.16 272.016 175.992V207.993C272.016 216.826 264.848 223.994 256.016 223.994Z" fill="#7F8F9F"/>
<path d="M320.002 223.994C314.146 223.994 308.514 220.73 305.698 215.162L289.698 183.16C285.762 175.256 288.93 165.655 296.834 161.687C304.738 157.751 314.338 160.919 318.306 168.823L334.306 200.825C338.242 208.729 335.042 218.33 327.138 222.298C324.834 223.45 322.402 223.994 320.002 223.994Z" fill="#7F8F9F"/>
<path d="M191.999 223.994C189.599 223.994 187.167 223.45 184.863 222.298C176.927 218.33 173.727 208.73 177.695 200.825L193.695 168.824C197.663 160.92 207.231 157.656 215.167 161.656C223.071 165.624 226.271 175.224 222.335 183.129L206.335 215.13C203.487 220.73 197.855 223.994 191.999 223.994Z" fill="#7F8F9F"/>
</svg>
