<svg width="512" height="512" viewBox="0 0 512 512" fill="none" xmlns="http://www.w3.org/2000/svg">
<path d="M256 512C114.848 512 0 397.152 0 256C0 114.848 114.848 0 256 0C262.048 0 267.808 0.352 273.888 1.056C282.656 2.08 288.96 10.048 287.904 18.816C286.88 27.616 278.848 33.92 270.112 32.832C265.312 32.288 260.8 32 256 32C132.48 32 32 132.48 32 256C32 379.488 132.48 480 256 480C379.488 480 480 379.488 480 256C480 251.232 479.712 246.688 479.168 241.92C478.112 233.152 484.352 225.184 493.152 224.096C501.376 223.072 509.888 229.28 510.944 238.08C511.648 244.16 512 249.92 512 256C512 397.152 397.152 512 256 512Z" fill="#7F8F9F"/>
<path d="M256 448C150.112 448 64 361.888 64 256C64 150.112 150.112 64 256 64C262.112 64 268.224 64.352 273.984 65.088C282.752 66.176 288.96 74.176 287.872 82.944C286.784 91.744 278.496 97.76 270.016 96.832C265.536 96.256 260.736 96 256 96C167.776 96 96 167.776 96 256C96 344.224 167.776 416 256 416C344.224 416 416 344.224 416 256C416 251.264 415.712 246.496 415.168 242.016C414.048 233.248 420.224 225.248 429.024 224.096C437.632 223.104 445.792 229.152 446.944 237.952C447.648 243.744 448 249.888 448 256C448 361.888 361.888 448 256 448Z" fill="#7F8F9F"/>
<path d="M495.04 256.001H272C263.168 256.001 256 248.833 256 240.001V16.9609C256 8.12894 263.168 0.960938 272 0.960938C280.832 0.960938 288 8.09694 288 16.9609V224.001H495.04C503.872 224.001 511.04 231.169 511.04 240.001C511.04 248.833 503.872 256.001 495.04 256.001Z" fill="#7F8F9F"/>
<path d="M176 240C149.536 240 128 218.464 128 192C128 165.536 149.536 144 176 144C202.464 144 224 165.536 224 192C224 218.464 202.464 240 176 240ZM176 176C167.168 176 160 183.168 160 192C160 200.832 167.168 208 176 208C184.832 208 192 200.832 192 192C192 183.168 184.832 176 176 176Z" fill="#7F8F9F"/>
<path d="M192 368C165.536 368 144 346.464 144 320C144 293.536 165.536 272 192 272C218.464 272 240 293.536 240 320C240 346.464 218.464 368 192 368ZM192 304C183.168 304 176 311.2 176 320C176 328.8 183.168 336 192 336C200.832 336 208 328.8 208 320C208 311.2 200.832 304 192 304Z" fill="#7F8F9F"/>
<path d="M320 384C293.536 384 272 362.464 272 336C272 309.536 293.536 288 320 288C346.464 288 368 309.536 368 336C368 362.464 346.464 384 320 384ZM320 320C311.2 320 304 327.2 304 336C304 344.8 311.2 352 320 352C328.8 352 336 344.8 336 336C336 327.2 328.8 320 320 320Z" fill="#7F8F9F"/>
<path d="M128.66 288C119.828 288 112.5 280.832 112.5 272C112.5 263.168 119.508 256 128.34 256H128.66C137.492 256 144.66 263.168 144.66 272C144.66 280.832 137.492 288 128.66 288Z" fill="#7F8F9F"/>
<path d="M256.628 400C247.796 400 240.5 392.832 240.5 384C240.5 375.168 247.508 368 256.34 368H256.66C265.492 368 272.66 375.168 272.66 384C272.66 392.832 265.46 400 256.628 400Z" fill="#7F8F9F"/>
<path d="M224.66 144.48C215.828 144.48 208.5 137.312 208.5 128.48C208.5 119.648 215.508 112.48 224.34 112.48H224.66C233.492 112.48 240.66 119.648 240.66 128.48C240.66 137.312 233.492 144.48 224.66 144.48Z" fill="#7F8F9F"/>
<path d="M384.66 304C375.86 304 368.5 296.832 368.5 288C368.5 279.168 375.508 272 384.34 272H384.66C393.492 272 400.66 279.168 400.66 288C400.66 296.832 393.492 304 384.66 304Z" fill="#7F8F9F"/>
</svg>
