<svg width="512" height="512" viewBox="0 0 512 512" fill="none" xmlns="http://www.w3.org/2000/svg">
<path d="M159.986 288.006C145.171 288.006 130.612 285.478 116.661 280.486C66.0093 262.247 31.9961 213.832 31.9961 160.01C31.9961 89.4194 89.3994 32.0129 159.986 32.0129C213.805 32.0129 262.217 66.0281 280.456 116.683C285.448 130.634 287.975 145.194 287.975 160.01C287.975 230.6 230.572 288.006 159.986 288.006ZM159.986 64.0121C107.062 64.0121 63.9935 107.083 63.9935 160.01C63.9935 200.393 89.4954 236.68 127.476 250.343C137.939 254.087 148.851 256.007 159.986 256.007C212.909 256.007 255.978 212.936 255.978 160.01C255.978 148.874 254.058 137.962 250.314 127.498C236.651 89.5154 200.366 64.0121 159.986 64.0121Z" fill="#7F8F9F"/>
<path d="M400.016 512C393.457 512 387.313 507.936 384.945 501.408L212.191 21.4208C209.184 13.133 213.503 3.94922 221.823 0.973297C230.046 -2.06662 239.293 2.25326 242.269 10.605L415.055 490.593C418.031 498.912 413.711 508.064 405.392 511.072C403.632 511.68 401.808 512 400.016 512Z" fill="#7F8F9F"/>
<path d="M495.957 416.002C494.165 416.002 492.341 415.682 490.549 415.074L10.5882 242.279C2.26885 239.303 -2.0508 230.119 0.95696 221.799C3.93272 213.479 13.148 209.128 21.4353 212.168L501.396 384.931C509.716 387.939 514.035 397.091 511.06 405.41C508.66 411.938 502.516 416.002 495.957 416.002Z" fill="#7F8F9F"/>
<path d="M159.987 224.008C124.694 224.008 95.9922 195.305 95.9922 160.01C95.9922 124.714 124.694 96.0112 159.987 96.0112C195.28 96.0112 223.982 124.714 223.982 160.01C223.982 195.305 195.28 224.008 159.987 224.008ZM159.987 128.01C142.356 128.01 127.99 142.378 127.99 160.01C127.99 177.641 142.356 192.009 159.987 192.009C177.618 192.009 191.984 177.641 191.984 160.01C191.984 142.378 177.618 128.01 159.987 128.01Z" fill="#7F8F9F"/>
</svg>
