<svg width="512" height="448" viewBox="0 0 512 448" fill="none" xmlns="http://www.w3.org/2000/svg">
<path d="M127.992 160C56.2205 160 0 124.864 0 79.9999C0 35.136 56.2205 0 127.992 0C199.764 0 255.984 35.136 255.984 79.9999C255.984 124.864 199.764 160 127.992 160ZM127.992 32C71.4196 32 31.998 57.312 31.998 79.9999C31.998 102.688 71.4196 128 127.992 128C184.565 128 223.986 102.688 223.986 79.9999C223.986 57.312 184.565 32 127.992 32Z" fill="#7F8F9F"/>
<path d="M127.992 288C56.2205 288 0 252.864 0 208V79.9997C0 71.1677 7.16756 63.9998 15.999 63.9998C24.8305 63.9998 31.998 71.1677 31.998 79.9997V208C31.998 230.72 71.4196 256 127.992 256C133.112 256 138.2 255.68 143.031 255.392C146.807 255.104 150.551 254.528 154.295 253.92C162.934 252.576 171.221 258.528 172.597 267.232C173.973 275.968 167.99 284.192 159.286 285.568C154.711 286.272 150.135 286.944 145.207 287.36C139.511 287.68 133.752 288 127.992 288Z" fill="#7F8F9F"/>
<path d="M239.985 192.64C231.154 192.64 223.986 185.472 223.986 176.64V79.9997C223.986 71.1677 231.154 63.9998 239.985 63.9998C248.817 63.9998 255.984 71.1677 255.984 79.9997V176.64C255.984 185.472 248.817 192.64 239.985 192.64Z" fill="#7F8F9F"/>
<path d="M383.969 160C312.197 160 255.977 124.864 255.977 79.9999C255.977 35.136 312.197 0 383.969 0C455.74 0 511.961 35.136 511.961 79.9999C511.961 124.864 455.74 160 383.969 160ZM383.969 32C327.396 32 287.975 57.312 287.975 79.9999C287.975 102.688 327.396 128 383.969 128C440.541 128 479.963 102.688 479.963 79.9999C479.963 57.312 440.541 32 383.969 32Z" fill="#7F8F9F"/>
<path d="M271.976 192.64C263.144 192.64 255.977 185.472 255.977 176.64V79.9997C255.977 71.1677 263.144 63.9998 271.976 63.9998C280.807 63.9998 287.975 71.1677 287.975 79.9997V176.64C287.975 185.472 280.807 192.64 271.976 192.64Z" fill="#7F8F9F"/>
<path d="M384.008 288C378.217 288 372.489 287.68 367.049 287.328C361.898 286.912 357.322 286.272 352.746 285.536C344.011 284.16 338.027 275.968 339.403 267.264C340.779 258.496 349.066 252.64 357.674 253.92C361.45 254.528 365.193 255.104 369.225 255.424C373.801 255.68 378.92 256 384.008 256C440.581 256 480.002 230.72 480.002 208V79.9997C480.002 71.1677 487.17 63.9998 496.001 63.9998C504.833 63.9998 512 71.1677 512 79.9997V208C512 252.864 455.78 288 384.008 288Z" fill="#7F8F9F"/>
<path d="M256.008 320C184.236 320 128.016 284.864 128.016 240C128.016 195.136 184.236 160 256.008 160C327.779 160 384 195.136 384 240C384 284.864 327.779 320 256.008 320ZM256.008 192C199.435 192 160.014 217.312 160.014 240C160.014 262.72 199.435 288 256.008 288C312.58 288 352.002 262.72 352.002 240C352.002 217.312 312.58 192 256.008 192Z" fill="#7F8F9F"/>
<path d="M256.008 448C184.236 448 128.016 412.864 128.016 368C128.016 359.168 135.183 352 144.015 352C152.846 352 160.014 359.168 160.014 368C160.014 390.72 199.435 416 256.008 416C312.58 416 352.002 390.72 352.002 368C352.002 359.168 359.169 352 368.001 352C376.832 352 384 359.168 384 368C384 412.864 327.779 448 256.008 448Z" fill="#7F8F9F"/>
<path d="M144.015 384C135.183 384 128.016 376.832 128.016 368V240C128.016 231.168 135.183 224 144.015 224C152.846 224 160.014 231.168 160.014 240V368C160.014 376.832 152.846 384 144.015 384Z" fill="#7F8F9F"/>
<path d="M368.001 384C359.17 384 352.002 376.832 352.002 368V240C352.002 231.168 359.17 224 368.001 224C376.832 224 384 231.168 384 240V368C384 376.832 376.832 384 368.001 384Z" fill="#7F8F9F"/>
<path d="M128.644 95.9997C119.813 95.9997 112.485 88.8317 112.485 79.9997C112.485 71.1678 119.493 63.9998 128.324 63.9998H128.644C137.476 63.9998 144.643 71.1678 144.643 79.9997C144.643 88.8317 137.476 95.9997 128.644 95.9997Z" fill="#7F8F9F"/>
<path d="M384.621 95.9997C375.821 95.9997 368.462 88.8317 368.462 79.9997C368.462 71.1678 375.437 63.9998 384.301 63.9998H384.621C393.452 63.9998 400.62 71.1678 400.62 79.9997C400.62 88.8317 393.452 95.9997 384.621 95.9997Z" fill="#7F8F9F"/>
<path d="M256.66 256C247.829 256 240.501 248.832 240.501 240C240.501 231.168 247.509 224 256.34 224H256.66C265.491 224 272.659 231.168 272.659 240C272.659 248.832 265.491 256 256.66 256Z" fill="#7F8F9F"/>
</svg>
