<svg width="197" height="512" viewBox="0 0 197 512" fill="none" xmlns="http://www.w3.org/2000/svg">
<path fill-rule="evenodd" clip-rule="evenodd" d="M0.986328 248.469V496.938C0.986328 505.255 7.72835 511.997 16.0451 511.997H181.691C190.008 511.997 196.75 505.255 196.75 496.938V248.469C196.75 207.247 182.7 169.576 151.574 149.738V15.0587C151.574 6.74202 144.832 0 136.515 0H61.2212C52.9045 0 46.1625 6.74202 46.1625 15.0587V149.738C15.0359 169.576 0.986328 207.247 0.986328 248.469ZM166.632 336.807V355.894C165.739 356.411 164.885 357.028 164.088 357.746L98.868 416.443L33.6483 357.746C32.8506 357.028 31.9971 356.411 31.1038 355.894V336.807C31.9971 336.29 32.8506 335.674 33.6483 334.956L98.868 276.258L164.088 334.956C164.885 335.674 165.739 336.29 166.632 336.807ZM166.632 296.727V248.469C166.632 213.957 154.407 184.031 129.907 172.068C124.736 169.543 121.456 164.291 121.456 158.536V97.8817H76.2799V158.536C76.2799 164.291 73.0001 169.543 67.8287 172.068C43.3287 184.031 31.1038 213.957 31.1038 248.469V296.727L88.7941 244.805C94.521 239.651 103.215 239.651 108.942 244.805L166.632 296.727ZM166.632 395.975V481.879H31.1038V395.975L88.7941 447.896C94.521 453.05 103.215 453.05 108.942 447.896L166.632 395.975ZM121.456 30.1174V67.7643H76.2799V30.1174H121.456ZM98.868 376.468C115.501 376.468 128.985 362.984 128.985 346.351C128.985 329.717 115.501 316.233 98.868 316.233C82.2346 316.233 68.7506 329.717 68.7506 346.351C68.7506 362.984 82.2346 376.468 98.868 376.468Z" fill="#7F8F9F"/>
</svg>
